<?xml version="1.0" encoding="UTF-8" standalone="no"?>
<!-- Created with Inkscape (http://www.inkscape.org/) -->

<svg
   version="1.1"
   id="svg99"
   width="1130.6667"
   height="1333.3333"
   viewBox="0 0 1130.6667 1333.3333"
   sodipodi:docname="gold_star2.svg"
   inkscape:version="1.2.2 (b0a84865, 2022-12-01)"
   xmlns:inkscape="http://www.inkscape.org/namespaces/inkscape"
   xmlns:sodipodi="http://sodipodi.sourceforge.net/DTD/sodipodi-0.dtd"
   xmlns="http://www.w3.org/2000/svg"
   xmlns:svg="http://www.w3.org/2000/svg">
  <defs
     id="defs103" />
  <sodipodi:namedview
     id="namedview101"
     pagecolor="#ffffff"
     bordercolor="#666666"
     borderopacity="1.0"
     inkscape:showpageshadow="2"
     inkscape:pageopacity="0.0"
     inkscape:pagecheckerboard="0"
     inkscape:deskcolor="#d1d1d1"
     showgrid="false"
     inkscape:zoom="0.34673459"
     inkscape:cx="679.19384"
     inkscape:cy="762.8313"
     inkscape:window-width="1512"
     inkscape:window-height="841"
     inkscape:window-x="0"
     inkscape:window-y="38"
     inkscape:window-maximized="1"
     inkscape:current-layer="g105" />
  <g
     inkscape:groupmode="layer"
     inkscape:label="Image"
     id="g105">
    <rect
       style="fill:#2f1b78;fill-opacity:1;stroke:none;stroke-width:1.333;stroke-linejoin:round;stroke-dasharray:none;stroke-opacity:1"
       id="rect3101"
       width="1159.3882"
       height="1355.5037"
       x="-8.6521511"
       y="-8.6521511" />
    <path
       style="fill:#ffdd55;stroke-width:1.333;stroke:none;stroke-dasharray:none;stroke-opacity:1;fill-opacity:1;stroke-linejoin:round"
       d="m 560.4852,1218.373 c -0.71846,-1.1625 -28.45896,-337.46924 -36.75312,-445.56979 -0.3864,-5.036 -3.20341,-1.23227 -91.0654,122.96314 -92.16448,130.27715 -94.45471,133.25445 -97.13346,126.27365 -0.41365,-1.0779 28.38588,-67.11418 63.99897,-146.74722 35.61308,-79.63304 64.53733,-144.9652 64.2761,-145.18257 -0.26121,-0.21737 -38.87494,27.38234 -85.80828,61.33272 -46.93333,33.95036 -86.26333,61.76449 -87.4,61.80916 -3.88879,0.15284 -5.30623,-2.65619 -3.25489,-6.45046 1.03132,-1.90757 31.2253,-41.86832 67.09776,-88.80165 35.87245,-46.93333 65.09001,-85.49122 64.92791,-85.6842 -0.16211,-0.19297 -69.48763,15.88255 -154.05672,35.72338 -84.56909,19.84084 -154.5612,35.76755 -155.53803,35.39271 -2.24274,-0.86062 -2.31213,-5.3517 -0.10937,-7.07884 0.91667,-0.71873 65.86667,-28.48099 144.33334,-61.69391 78.46667,-33.21292 143.0933,-60.75496 143.61474,-61.20454 0.52144,-0.44957 -81.37857,-6.13281 -182.00001,-12.62942 C 114.9933,594.32855 29.066668,588.63517 24.666667,588.17323 c -7.42047,-0.77907 -8,-1.08138 -8,-4.17324 0,-2.72646 0.849639,-3.51895 4.666667,-4.35282 2.566667,-0.56072 88.066666,-8.2283 190.000006,-17.0391 101.93334,-8.81079 185.7223,-16.15203 186.1977,-16.31386 0.47539,-0.16182 -40.44667,-19.73869 -90.93791,-43.50414 -50.49124,-23.76546 -92.08899,-43.95713 -92.43944,-44.8704 -0.35046,-0.91327 0.10373,-2.67375 1.0093,-3.9122 1.52604,-2.08699 8.76131,-1.21733 98.90842,11.8884 53.49407,7.77705 98.34623,14.3848 99.67147,14.68388 2.06811,0.46672 2.16257,0.23377 0.66667,-1.64396 -0.95858,-1.20326 -37.62617,-41.72041 -81.48353,-90.03813 -80.33099,-88.50076 -83.70355,-92.62735 -76.77961,-93.94581 1.18052,-0.2248 47.677,28.9726 103.32551,64.88309 55.64851,35.9105 101.30637,65.16454 101.46192,65.009 0.15556,-0.15555 -14.1098,-51.55907 -31.7008,-114.23005 C 411.64205,247.94291 397.41831,195.46666 397.62472,194 c 0.21529,-1.52976 1.56473,-2.83658 3.16519,-3.0652 2.38788,-0.34111 11.80237,14.50234 65.33333,103.00838 34.39889,56.8738 62.68686,102.65314 62.86214,101.73186 0.17528,-0.92128 7.23446,-59.87505 15.68706,-131.00838 8.45262,-71.13333 15.65652,-130.12541 16.00868,-131.09352 1.20958,-3.3251 6.43254,-1.16155 7.46798,3.09352 0.53536,2.2 8.6464,61.45 18.02454,131.66667 9.37815,70.21666 17.4397,127.66666 17.91456,127.66666 0.47487,0 25.99929,-41.97321 56.72094,-93.27381 30.72165,-51.3006 56.71407,-93.62265 57.76093,-94.049 1.04687,-0.42635 2.74642,0.0679 3.77679,1.09823 1.60897,1.60897 -1.82809,16.87493 -24.35103,108.1569 -14.42342,58.45593 -26.02298,106.45229 -25.77678,106.65857 0.2462,0.20627 41.46293,-24.9984 91.59275,-56.0104 50.44912,-31.20953 91.97331,-56.06762 93,-55.67365 1.02019,0.3915 1.82155,1.9976 1.78079,3.56915 -0.0463,1.78205 -25.82355,32.96322 -68.49781,82.85734 -37.63302,44 -68.34968,80.08185 -68.25923,80.18191 0.0904,0.1 51.16447,-6.93431 113.49781,-15.63191 62.33333,-8.69758 115.28333,-15.82944 117.66667,-15.84856 3.41246,-0.0273 4.33333,0.51519 4.33333,2.5532 0,1.42339 -0.74812,3.07339 -1.66249,3.66667 -0.91438,0.59328 -50.53408,20.65593 -110.26602,44.58365 -107.57323,43.09225 -108.54091,43.51304 -102.00417,44.35565 3.62964,0.4679 79.79934,8.0316 169.26601,16.80827 89.46671,8.77667 170.96111,16.79109 181.09881,17.80984 10.1377,1.01875 19.0674,2.48747 19.8437,3.26381 2.7382,2.7382 -0.011,5.30539 -6.5143,6.08458 -3.5355,0.42356 -85.9282,5.61782 -183.09487,11.54281 -97.16667,5.925 -178.41705,11.19885 -180.55639,11.71968 -3.34206,0.81362 17.93849,10.61256 151.1416,69.59534 85.26723,37.75662 155.34966,69.44491 155.73876,70.41844 0.389,0.97353 -0.1247,2.58337 -1.1416,3.57743 -1.5599,1.52476 -27.2811,-4.43386 -164.50041,-38.10849 -89.45826,-21.95372 -163.02306,-39.76356 -163.47734,-39.57742 -0.45428,0.18614 26.99651,35.73843 61.00175,79.00509 41.47624,52.77243 61.71237,79.53996 61.47733,81.31971 -0.19271,1.45919 -1.25037,2.80339 -2.35037,2.98712 -1.1,0.18373 -39.5,-24.80445 -85.33334,-55.52931 -45.83333,-30.72485 -83.47509,-55.46905 -83.64836,-54.9871 -0.17325,0.48193 29.30124,68.07625 65.49888,150.20958 66.24743,150.31699 67.72084,153.99999 61.60952,153.99999 -0.9787,0 -44.25188,-58.94999 -96.16261,-130.99999 -51.91072,-72.05 -95.09169,-131.7814 -95.95767,-132.73644 -1.22496,-1.3509 -1.90612,2.20142 -3.068,16 C 584.24604,1023.4243 567.86474,1214.6572 567.31712,1217 c -0.76137,3.2572 -5.12536,4.1343 -6.83192,1.373 z"
       id="path290" />
  </g>
</svg>
